<svg width="222" height="48" viewBox="0 0 222 48" fill="none" xmlns="http://www.w3.org/2000/svg">
<path d="M98.1429 26.6537C98.1429 25.8766 97.9356 25.1383 97.5211 24.4389C97.1326 23.7394 96.6015 23.1695 95.928 22.7291C95.2545 22.2888 94.5291 22.0686 93.752 22.0686C92.405 22.0686 91.2781 22.483 90.3714 23.312C89.4648 24.115 89.0114 25.229 89.0114 26.6537V38.272H85.048V26.6537C85.048 25.3844 84.6724 24.3093 83.9211 23.4286C83.1699 22.5478 82.1078 22.1074 80.7349 22.1074C79.3878 22.1074 78.248 22.5737 77.3154 23.5063C76.4088 24.4389 75.9554 25.5528 75.9554 26.848V38.272H71.9143V17.9886H75.9554V21.2526C76.4476 20.2164 77.147 19.4133 78.0537 18.8434C78.9604 18.2735 79.9707 17.9886 81.0846 17.9886C82.587 17.9886 83.8305 18.3124 84.8149 18.96C85.8251 19.6076 86.68 20.592 87.3794 21.9131C88.2343 20.7474 89.1798 19.8019 90.216 19.0766C91.2781 18.3512 92.5345 17.9886 93.9851 17.9886C95.4617 17.9886 96.8217 18.3383 98.0651 19.0377C99.3086 19.7112 100.306 20.6956 101.057 21.9909C101.808 23.2602 102.184 24.7497 102.184 26.4594V38.272H98.1429V26.6537ZM110.708 29.2571C110.708 30.7337 111.135 31.9383 111.99 32.8709C112.845 33.7775 114.076 34.2309 115.682 34.2309C116.718 34.2309 117.638 33.9977 118.441 33.5314C119.244 33.0392 119.852 32.4046 120.267 31.6274C120.707 30.8244 120.914 29.9695 120.889 29.0629V17.9109H124.93V38.272H120.889V35.2411C120.293 36.2514 119.503 37.0156 118.518 37.5337C117.56 38.0259 116.498 38.272 115.332 38.272C113.726 38.272 112.262 37.9352 110.941 37.2617C109.646 36.5882 108.61 35.5909 107.833 34.2697C107.055 32.9227 106.667 31.3166 106.667 29.4514V17.9886H110.708V29.2571ZM126.221 42.5851C127.361 42.7665 128.151 42.8571 128.591 42.8571C129.161 42.8571 129.641 42.6758 130.029 42.3131C130.418 41.9505 130.612 41.3547 130.612 40.5257V17.9109H134.77V40.5257C134.77 41.8987 134.433 43.0773 133.759 44.0617C133.086 45.0461 132.27 45.7844 131.311 46.2766C130.379 46.7688 129.472 47.0149 128.591 47.0149C127.581 47.0149 126.532 46.8853 125.444 46.6263L126.221 42.5851ZM130.379 10.6057C130.379 9.93219 130.586 9.38819 131.001 8.97371C131.415 8.53333 131.985 8.31314 132.71 8.31314C133.41 8.31314 133.954 8.53333 134.342 8.97371C134.757 9.38819 134.964 9.93219 134.964 10.6057C134.964 11.2792 134.757 11.8362 134.342 12.2766C133.954 12.691 133.41 12.8983 132.71 12.8983C131.985 12.8983 131.415 12.691 131.001 12.2766C130.586 11.8362 130.379 11.2792 130.379 10.6057ZM143.424 17.9109V38.3497H139.422V17.9109H143.424ZM139.111 10.6057C139.111 9.93219 139.318 9.38819 139.733 8.97371C140.147 8.53333 140.717 8.31314 141.442 8.31314C142.142 8.31314 142.686 8.53333 143.074 8.97371C143.489 9.38819 143.696 9.93219 143.696 10.6057C143.696 11.2792 143.489 11.8362 143.074 12.2766C142.686 12.691 142.142 12.8983 141.442 12.8983C140.717 12.8983 140.147 12.691 139.733 12.2766C139.318 11.8362 139.111 11.2792 139.111 10.6057ZM157.881 34.5417C158.917 34.5417 159.876 34.2697 160.756 33.7257C161.663 33.1558 162.375 32.3916 162.893 31.4331C163.412 30.4488 163.671 29.3737 163.671 28.208C163.671 27.0423 163.412 25.9931 162.893 25.0606C162.375 24.1021 161.663 23.3509 160.756 22.8069C159.876 22.237 158.917 21.952 157.881 21.952C156.016 21.952 154.578 22.5349 153.568 23.7006C152.583 24.8663 152.091 26.3688 152.091 28.208C152.091 30.099 152.583 31.6274 153.568 32.7931C154.578 33.9589 156.016 34.5417 157.881 34.5417ZM148.011 28.208C148.011 26.291 148.387 24.5684 149.138 23.04C149.915 21.4857 151.029 20.2682 152.48 19.3874C153.93 18.4808 155.653 18.0274 157.648 18.0274C158.788 18.0274 159.94 18.2994 161.106 18.8434C162.272 19.3874 163.204 20.2811 163.904 21.5246V17.9109H167.984V37.184C167.984 39.2305 167.517 40.992 166.585 42.4686C165.678 43.971 164.422 45.1109 162.816 45.888C161.21 46.6651 159.37 47.0537 157.298 47.0537C155.536 47.0537 153.879 46.6392 152.324 45.8103C150.796 44.9813 149.565 43.8545 148.633 42.4297L152.091 40.1371C152.687 41.1215 153.464 41.8598 154.423 42.352C155.381 42.8701 156.34 43.1291 157.298 43.1291C159.163 43.1291 160.73 42.6629 162 41.7303C163.269 40.7977 163.904 39.3989 163.904 37.5337V34.8526C163.101 36.0442 162.116 36.9379 160.951 37.5337C159.811 38.1295 158.71 38.4274 157.648 38.4274C155.653 38.4274 153.917 37.987 152.441 37.1063C150.99 36.1996 149.889 34.9821 149.138 33.4537C148.387 31.8994 148.011 30.1509 148.011 28.208ZM181.295 34.6583C182.331 34.6583 183.302 34.3992 184.209 33.8811C185.116 33.3371 185.841 32.5859 186.385 31.6274C186.929 30.643 187.201 29.5421 187.201 28.3246C187.201 27.107 186.916 26.019 186.346 25.0606C185.802 24.1021 185.077 23.3509 184.17 22.8069C183.289 22.2629 182.331 21.9909 181.295 21.9909C179.404 21.9909 177.953 22.5737 176.943 23.7394C175.958 24.9051 175.466 26.4335 175.466 28.3246C175.466 30.2156 175.958 31.744 176.943 32.9097C177.953 34.0754 179.404 34.6583 181.295 34.6583ZM171.386 28.3246C171.386 26.4594 171.762 24.7497 172.513 23.1954C173.29 21.6411 174.404 20.4107 175.855 19.504C177.305 18.5714 179.028 18.1051 181.023 18.1051C182.188 18.1051 183.328 18.403 184.442 18.9989C185.556 19.5947 186.502 20.4754 187.279 21.6411V18.0274H191.32V38.2331L187.279 38.272V35.0469C186.45 36.2385 185.491 37.1322 184.403 37.728C183.341 38.2979 182.214 38.5829 181.023 38.5829C179.028 38.5829 177.305 38.1295 175.855 37.2229C174.404 36.2903 173.29 35.0469 172.513 33.4926C171.762 31.9124 171.386 30.1897 171.386 28.3246ZM210.674 26.4983C210.545 25.0735 210.027 23.9078 209.12 23.0011C208.213 22.0945 206.944 21.6411 205.312 21.6411C203.654 21.6411 202.294 22.0556 201.232 22.8846C200.196 23.6876 199.587 24.8922 199.406 26.4983H210.674ZM195.52 28.1691C195.52 26.2781 195.896 24.5554 196.647 23.0011C197.424 21.4469 198.538 20.2164 199.989 19.3097C201.465 18.3771 203.214 17.9109 205.234 17.9109C207.928 17.9109 209.897 18.5585 211.141 19.8537C212.384 21.123 213.226 22.3147 213.666 23.4286C214.262 24.957 214.56 26.7314 214.56 28.752L214.521 29.9566H199.406C199.613 31.459 200.209 32.6248 201.193 33.4537C202.204 34.2827 203.564 34.6971 205.273 34.6971C206.646 34.6971 207.76 34.464 208.615 33.9977C209.47 33.5055 210.04 32.9227 210.325 32.2491L213.783 33.8811C213.213 35.1505 212.203 36.2255 210.752 37.1063C209.301 37.9611 207.462 38.3886 205.234 38.3886C203.214 38.3886 201.465 37.9352 199.989 37.0286C198.538 36.096 197.424 34.8526 196.647 33.2983C195.896 31.744 195.52 30.0343 195.52 28.1691Z" fill="black"/>
<path fill-rule="evenodd" clip-rule="evenodd" d="M48.5714 13.7365C48.5714 12.0674 47.2183 10.7143 45.5492 10.7143L40.9161 10.7143C30.8566 10.7143 22.7018 18.8691 22.7018 28.9286V28.9286C22.7018 38.9881 30.8566 47.1429 40.9161 47.1429L45.5492 47.1429C47.2183 47.1429 48.5714 45.7898 48.5714 44.1206L48.5714 13.7365Z" fill="#FFB600"/>
<rect x="22.7017" y="10.7144" width="36.4286" height="11.3509" rx="5.67547" transform="rotate(90 22.7017 10.7144)" fill="#FF4872"/>
<path fill-rule="evenodd" clip-rule="evenodd" d="M7.71159e-05 13.7279C0.00479597 12.0628 1.35608 10.7144 3.02229 10.7144V10.7144C7.62212 10.7144 11.351 14.4433 11.351 19.0431L11.351 38.7967C11.351 43.4062 7.61428 47.1429 3.00479 47.1429V47.1429C1.34662 47.1335 0.00477828 45.7888 7.5787e-05 44.1295L7.71159e-05 13.7279Z" fill="#A463FF"/>
</svg>
